<!--?xml version="1.0" encoding="utf-8"?-->
<!-- Generator: Adobe Illustrator 19.2.1, SVG Export Plug-In . SVG Version: 6.00 Build 0)  -->
<svg version="1.1" id="_x31_0" xmlns="http://www.w3.org/2000/svg" xmlns:xlink="http://www.w3.org/1999/xlink" x="0px" y="0px" viewBox="0 0 512 512" style="width: 256px; height: 256px; opacity: 1;" xml:space="preserve">
<style type="text/css">
	.st0{fill:#374149;}
</style>
<g>
	<path class="st0" d="M175.594,409.734h160.813c38.629,0,70.082-31.453,70.082-70.125V172.39c0-38.668-31.453-70.121-70.082-70.121
		H175.594c-38.672,0-70.121,31.453-70.121,70.121V339.61C105.473,378.282,136.922,409.734,175.594,409.734z M357.942,131.871
		c12.27,0,22.191,9.918,22.191,22.187c0,12.234-9.922,22.192-22.191,22.192c-12.274,0-22.191-9.958-22.191-22.192
		C335.75,141.789,345.668,131.871,357.942,131.871z M255.981,156.953c54.644,0,99.066,44.422,99.066,99.031
		c0,54.645-44.422,99.063-99.066,99.063c-54.61,0-99.028-44.418-99.028-99.063C156.953,201.375,201.371,156.953,255.981,156.953z" style="fill: rgb(255, 0, 134);"></path>
	<path class="st0" d="M255.981,324.172c37.59,0,68.191-30.602,68.191-68.188c0-37.59-30.602-68.156-68.191-68.156
		c-37.59,0-68.153,30.566-68.153,68.156C187.828,293.57,218.39,324.172,255.981,324.172z" style="fill: rgb(255, 0, 134);"></path>
	<path class="st0" d="M403.285,0h-294.57C48.664,0,0,48.664,0,108.715v294.574C0,463.336,48.664,512,108.715,512h294.57
		C463.336,512,512,463.336,512,403.289V108.715C512,48.664,463.336,0,403.285,0z M66.879,172.39
		c0-60.046,48.664-108.71,108.714-108.71h160.813c60.011,0,108.676,48.664,108.676,108.71V339.61
		c0,60.05-48.665,108.714-108.676,108.714H175.594c-60.05,0-108.714-48.664-108.714-108.714V172.39z" style="fill: rgb(255, 0, 134);"></path>
</g>
</svg>
